#!OML:ASF F:\VICON\USERDATA\INSTALL\rory3\rory3.ASF
:FULLY-SPECIFIED
:DEGREES
18
root 0.193876658968143 18.173683978976538 -17.479188069548645 -3.858801461783267 1.257854422134169 -6.44438947025121
lfemur -9.944838528513017 0.40008864483659323 -12.748010315574065
ltibia 67.12357992923299
lfoot 14.124177075439313 -20.205272602958804
ltoes -1.0849378472313047
rfemur -12.48860105483139 2.640078533978267 32.724290388100435
rtibia 26.451706228105927
rfoot -7.974999896374415 -7.972591108010285
rtoes 6.706154148788279
lowerback 11.424995644421582 -0.5205311492925978 2.36367603478372
upperback -0.009315349989735225 -0.1318164232918232 3.722904774767578
thorax -6.431334472677535 -0.07773154187897338 2.6137652778494154
lowerneck -14.941119434377937 -3.1256771141709145 -1.8948913386514934
upperneck 21.528098741173142 -3.8353603059307986 -0.23750854689619905
head 9.274039450824093 -1.9739560630552158 -0.23786100612925226
lclavicle 2.99111379723031e-16 5.5314580105624427e-17
lhumerus -29.895500701705462 5.373417340274839 84.04478615004764
lradius 27.86779570539803
lwrist 7.0608508618807795
lhand -29.55040005182812 17.79020219308492
lfingers 7.125020000000001
lthumb -2.883300051073832 47.75050217142899
rclavicle 2.99111379723031e-16 5.5314580105624427e-17
rhumerus -35.96839153750784 -25.746190509198136 -72.96130953550801
rradius 20.879715392249686
rwrist 9.172416012941758
rhand -14.063630938437864 24.308192654557786
rfingers 7.125020000000001
rthumb 12.067769070209357 -5.323808126459065
19
root 0.1871228692633341 18.149485430049097 -16.87178832873694 -3.73530233481493 1.4595836969262108 -6.258919998334237
lfemur -15.631794776239998 0.3076220564060739 -12.877710109377414
ltibia 71.09797762674313
lfoot 6.817705009133163 -14.178282165839402
ltoes -3.2092653681640213
rfemur -10.899602192719593 3.386496210876242 32.925390060662785
rtibia 27.435605703638196
rfoot -9.749417794989204 -9.433067124211243
rtoes 6.759434078766247
lowerback 11.565694075018834 -0.3161165104819442 2.43570585259328
upperback 0.41718435812417193 0.11397855724361411 3.3534296055856023
thorax -6.062891844644048 0.03552970009172371 2.1349170934250647
lowerneck -16.00650624276972 -3.323862261856144 -1.6702153510315143
upperneck 21.354700876624346 -4.1541660404949585 -0.1883770454660625
head 9.409245366942207 -2.0936215327321177 -0.3156887248570312
lclavicle 2.9911142831248836e-16 5.531452542582933e-17
lhumerus -29.879500729247013 6.680935096451593 83.49298856759701
lradius 27.104197211283132
lwrist 8.180727749230023
lhand -27.288711561768768 20.022297856593667
lfingers 7.125020000000001
lthumb -0.6988895622671905 50.00089780904666
rclavicle 2.9911142831248836e-16 5.531452542582933e-17
rhumerus -32.97919630578796 -25.3935911136626 -74.69920527799533
rradius 21.56751394805399
rwrist 8.491157782735609
rhand -14.24612949553275 18.927114875437383
rfingers 7.125020000000001
rthumb 11.891770512178931 -10.715185776769317
20
root 0.19404565370609417 18.175283883037856 -16.240688598038457 -3.355295021136894 0.5131190994251996 -6.133000356862371
lfemur -20.31189168829618 0.910768371797249 -13.066109809859691
ltibia 71.74527725174266
lfoot 0.1224692791193176 -9.722719235373795
ltoes -10.183497229310712
rfemur -9.00312355079525 4.617642379136665 33.12898972915454
rtibia 27.691005567497307
rfoot -12.172194925773297 -9.958905689860279
rtoes 11.712287569581441
lowerback 11.228297838462238 0.2394977897034546 2.6767952427877435
upperback 0.5544479846594998 0.8373525569620108 2.963164708225395
thorax -5.731618472911291 0.3803186792472657 1.4657296306811396
lowerneck -15.722709756734815 -3.413880057883312 -1.814822768557441
upperneck 21.114903829803108 -4.3679031808159765 0.33592863405720275
head 9.291238931315414 -2.147389497172053 -0.13115113399000694
lclavicle 2.9911139772621507e-16 5.531456215514378e-17
lhumerus -30.472499708488428 6.879594755532965 83.08819034110911
lradius 26.09609919934334
lwrist 9.434544264299705
lhand -26.93021338619894 20.63769666100354
lfingers 7.125020000000001
lthumb -0.35273438640197785 50.617096614547904
rclavicle 2.9911139772621507e-16 5.531456215514378e-17
rhumerus -30.367500471891663 -23.52589431547274 -76.76260022307176
rradius 22.490212010631218
rwrist 6.833772088343757
rhand -15.516019455285056 17.53642061823667
rfingers 7.125020000000001
rthumb 10.667080546157116 -12.17277973438555
21
root 0.3848417219237631 18.111583808673927 4.7362521359064695 -2.9550786014284487 1.262497782024004 -4.811526172344026
lfemur -19.9301436978991 1.573978227160465 -13.793560209493226
ltibia 66.38942793750344
lfoot -5.374222102675918 -4.8047978179936965
ltoes -5.649770943610374
rfemur -5.683860209353782 3.5512363770152917 32.15140341975048
rtibia 29.139418848277906
rfoot -12.65907049525143 -7.910572230908977
rtoes 8.488270329421281
lowerback 10.209231918171442 0.5594382010729965 2.994626450848598
upperback 0.3054474344663011 1.2510090610425326 2.260368024575028
thorax -5.721100222891053 0.6157504013941886 0.09927295868908126
lowerneck -15.917332468851122 -3.3576556363969323 -1.7543613175053652
upperneck 21.360115699666363 -4.442169606315496 0.9433340994546088
head 9.374773648745578 -2.139872644742818 0.05659510836030032
lclavicle 2.9911140337318435e-16 5.531456155539228e-17
lhumerus -32.630958053647845 3.740361561202513 83.51209021951455
lradius 26.66796986964331
lwrist 8.886994961830398
lhand -28.623193468367923 22.945500251635252
lfingers 7.125020000000001
lthumb -2.3363188621932856 52.061470907241194
rclavicle 2.9911140327020744e-16 5.531456148209557e-17
rhumerus -28.280681231511572 -18.617348442527543 -79.02634198383633
rradius 25.628061645488703
rwrist 4.482368944782221
rhand -17.558167744341404 22.379075176976475
rfingers 7.125020000000001
rthumb 8.663543146653117 -7.654285519421849
